<svg width="40" height="40" viewBox="-2 -4 35 33" fill="none" xmlns="http://www.w3.org/2000/svg"><path fill-rule="evenodd" clip-rule="evenodd" d="M14.4085 1.60964L17.6892 7.71805L13.2198 10.5865C12.2655 11.199 11.9431 12.4426 12.4796 13.4415L14.3745 16.9697C14.715 17.6036 15.5049 17.8415 16.1388 17.5011C16.7728 17.1606 17.0107 16.3707 16.6702 15.7367L14.9654 12.5625L19.4349 9.69409C20.3892 9.08163 20.7116 7.83802 20.1751 6.83905L17.165 1.23451C18.4642 0.451637 19.9944 0 21.6325 0C26.342 0 30.1599 3.73305 30.1599 8.33801C30.1599 10.953 28.9287 13.2868 27.0023 14.8155L17.6293 23.254C16.5373 24.2371 14.8831 24.25 13.7759 23.284L4.45601 15.1524C2.27071 13.6427 0.84375 11.1533 0.84375 8.33801C0.84375 3.73305 4.66158 0 9.37112 0C11.2555 0 12.9971 0.597639 14.4085 1.60964Z" fill="url(#paint0_linear_7934_228960)"/><defs><linearGradient id="paint0_linear_7934_228960" x1="10.7301" y1="-3.46656e-07" x2="18.4096" y2="26.1819" gradientUnits="userSpaceOnUse"><stop stop-color="#26F663"/><stop offset="0.601579" stop-color="#268AFF"/><stop offset="0.940172" stop-color="#FC55FF"/></linearGradient></defs></svg>