<svg width="46" height="46" viewBox="0 0 46 46" fill="none" xmlns="http://www.w3.org/2000/svg"><path d="M8.56452 13.658C12.1053 6.66158 20.6474 3.86018 27.6439 7.40094C34.6403 10.9417 37.4417 19.4838 33.901 26.4803C30.3602 33.4767 21.8181 36.2782 14.8216 32.7374C7.82516 29.1966 5.02375 20.6545 8.56452 13.658Z" stroke="#AFAFAF" stroke-width="2.0627" stroke-linecap="round"/><path d="M36.674 27.8836C40.9749 19.3851 37.5988 9.01569 29.1357 4.67275L29.0471 4.62792C28.3649 4.28265 28.0917 3.44969 28.437 2.76744C28.7822 2.08522 29.6151 1.81205 30.2974 2.15725L30.421 2.21981C40.223 7.2639 44.1302 19.2826 39.1446 29.1339C36.3075 34.7401 31.1992 38.4413 25.5047 39.6851V43.0268H28.0175C28.7114 43.0268 29.274 43.5893 29.274 44.2833C29.274 44.9772 28.7114 45.5398 28.0175 45.5398H19.2221C18.5281 45.5398 17.9656 44.9772 17.9656 44.2833C17.9656 43.5893 18.5281 43.0268 19.2221 43.0268H21.7352V40.1418C18.5632 40.224 15.3267 39.5536 12.2915 38.0432L12.1677 37.9812C11.4855 37.6359 11.2123 36.8029 11.5576 36.1207C11.9028 35.4384 12.7358 35.1653 13.418 35.5105C21.9461 39.8264 32.3581 36.4117 36.674 27.8836Z" fill="#AFAFAF" stroke="white" stroke-width="0.515676"/><path d="M21.2514 12.16L20.8166 13.0134L21.2514 12.16L21.1051 12.0855L19.6866 11.3627L19.6068 12.9527C19.5588 13.9093 19.313 14.8724 18.8484 15.7842C17.0874 19.2403 12.8582 20.6145 9.40214 18.8535C8.58478 18.437 7.8854 17.8839 7.31616 17.2365C7.56414 16.0221 7.97673 14.8195 8.56451 13.658C11.5791 7.70119 18.2212 4.78378 24.447 6.23605C26.0008 7.12012 26.5992 9.07948 25.7792 10.6889C24.9351 12.3454 22.908 13.0041 21.2514 12.16ZM20.4836 30.7067C21.7885 31.3716 22.3321 32.9389 21.7416 34.261C19.4196 34.3465 17.044 33.8621 14.8216 32.7374C13.7957 32.2182 12.861 31.5922 12.0235 30.8801C12.0207 30.4567 12.1164 30.0265 12.3227 29.6216C13.0093 28.2742 14.6581 27.7385 16.0055 28.425L20.4836 30.7067ZM27.4655 21.2996C28.9424 18.401 32.2939 17.0825 35.2906 18.069C35.6893 20.8522 35.2675 23.7801 33.901 26.4803C33.1377 27.9885 32.1433 29.3002 30.9831 30.3955L30.3094 30.0523C27.1071 28.4206 25.8338 24.5019 27.4655 21.2996Z" stroke="#AFAFAF" stroke-width="2.0627"/></svg>